# 3ds Max Wavefront OBJ Exporter v0.97b - (c)2007 guruware
# File Created: 29.01.2018 17:12:48

mtllib Player.mtl

#
# object Player
#

v  -5.0000 -3.2500 -0.0000
v  -5.0000 -3.7500 -0.2500
v  -5.0000 -3.7500 -0.0000
v  -5.0000 -3.2500 -0.2500
v  -5.0000 3.7500 -0.0000
v  -5.0000 3.2500 -0.2500
v  -5.0000 3.2500 -0.0000
v  -5.0000 3.7500 -0.2500
v  -4.2500 0.5000 -0.0000
v  -4.2500 -0.5000 -0.2500
v  -4.2500 -0.5000 -0.0000
v  -4.2500 0.5000 -0.2500
v  -4.0000 -3.7500 -0.0000
v  -4.0000 -5.0000 -0.2500
v  -4.0000 -5.0000 -0.0000
v  -4.0000 -3.7500 -0.2500
v  -4.0000 -2.5000 -0.0000
v  -4.0000 -3.2500 -0.2500
v  -4.0000 -3.2500 -0.0000
v  -4.0000 -2.5000 -0.2500
v  -4.0000 3.2500 -0.0000
v  -4.0000 2.5000 -0.2500
v  -4.0000 2.5000 -0.0000
v  -4.0000 3.2500 -0.2500
v  -4.0000 5.0000 -0.0000
v  -4.0000 3.7500 -0.2500
v  -4.0000 3.7500 -0.0000
v  -4.0000 5.0000 -0.2500
v  -3.7500 0.2500 0.2500
v  -3.7500 -0.2500 -0.0000
v  -3.7500 -0.2500 0.2500
v  -3.7500 0.2500 -0.0000
v  -3.2500 -3.7500 0.2500
v  -3.2500 -4.2500 -0.0000
v  -3.2500 -4.2500 0.2500
v  -3.2500 -3.7500 -0.0000
v  -3.2500 -1.7500 -0.0000
v  -3.2500 -2.2500 -0.2500
v  -3.2500 -2.2500 -0.0000
v  -3.2500 -1.7500 -0.2500
v  -3.2500 2.2500 -0.0000
v  -3.2500 1.7500 -0.2500
v  -3.2500 1.7500 -0.0000
v  -3.2500 2.2500 -0.2500
v  -3.2500 4.2500 0.2500
v  -3.2500 3.7500 -0.0000
v  -3.2500 3.7500 0.2500
v  -3.2500 4.2500 -0.0000
v  -3.0000 -0.5000 -0.0000
v  -3.0000 -0.7500 -0.2500
v  -3.0000 -0.7500 -0.0000
v  -3.0000 -0.5000 -0.2500
v  -3.0000 0.7500 -0.0000
v  -3.0000 0.5000 -0.2500
v  -3.0000 0.5000 -0.0000
v  -3.0000 0.7500 -0.2500
v  -1.7500 -2.2500 -0.0000
v  -1.7500 -2.5000 -0.2500
v  -1.7500 -2.5000 -0.0000
v  -1.7500 -2.2500 -0.2500
v  -1.7500 -1.2500 -0.0000
v  -1.7500 -1.7500 -0.2500
v  -1.7500 -1.7500 -0.0000
v  -1.7500 -1.2500 -0.2500
v  -1.7500 1.7500 -0.0000
v  -1.7500 1.2500 -0.2500
v  -1.7500 1.2500 -0.0000
v  -1.7500 1.7500 -0.2500
v  -1.7500 2.5000 -0.0000
v  -1.7500 2.2500 -0.2500
v  -1.7500 2.2500 -0.0000
v  -1.7500 2.5000 -0.2500
v  -1.5000 0.2500 0.2500
v  -1.5000 -0.2500 -0.0000
v  -1.5000 -0.2500 0.2500
v  -1.5000 0.2500 -0.0000
v  -1.2500 -2.5000 0.2500
v  -1.2500 -3.0000 -0.0000
v  -1.2500 -3.0000 0.2500
v  -1.2500 -2.5000 -0.0000
v  -1.2500 3.0000 0.2500
v  -1.2500 2.5000 -0.0000
v  -1.2500 2.5000 0.2500
v  -1.2500 3.0000 -0.0000
v  -0.7500 -0.7500 -0.0000
v  -0.7500 -1.2500 -0.2500
v  -0.7500 -1.2500 -0.0000
v  -0.7500 -0.7500 -0.2500
v  -0.7500 0.2500 0.2500
v  -0.7500 -0.2500 -0.0000
v  -0.7500 -0.2500 0.2500
v  -0.7500 0.2500 -0.0000
v  -0.7500 1.2500 -0.0000
v  -0.7500 0.7500 -0.2500
v  -0.7500 0.7500 -0.0000
v  -0.7500 1.2500 -0.2500
v  1.5000 0.2500 0.2500
v  1.5000 -0.2500 -0.0000
v  1.5000 -0.2500 0.2500
v  1.5000 0.2500 -0.0000
v  2.0000 -1.2500 -0.0000
v  2.0000 -1.5000 -0.2500
v  2.0000 -1.5000 -0.0000
v  2.0000 -1.2500 -0.2500
v  2.0000 1.5000 -0.0000
v  2.0000 1.2500 -0.2500
v  2.0000 1.2500 -0.0000
v  2.0000 1.5000 -0.2500
v  2.5000 -0.7500 -0.0000
v  2.5000 -1.2500 -0.2500
v  2.5000 -1.2500 -0.0000
v  2.5000 -0.7500 -0.2500
v  2.5000 1.2500 -0.0000
v  2.5000 0.7500 -0.2500
v  2.5000 0.7500 -0.0000
v  2.5000 1.2500 -0.2500
v  -2.5000 -0.2500 0.2500
v  -2.5000 -0.2500 -0.0000
v  -2.5000 0.2500 0.2500
v  -2.5000 0.2500 -0.0000
v  -2.0000 -4.2500 0.2500
v  -2.0000 -4.2500 -0.0000
v  -2.0000 -3.7500 0.2500
v  -2.0000 -3.7500 -0.0000
v  -2.0000 3.7500 0.2500
v  -2.0000 3.7500 -0.0000
v  -2.0000 4.2500 0.2500
v  -2.0000 4.2500 -0.0000
v  -1.7500 -5.0000 -0.0000
v  -1.7500 -5.0000 -0.2500
v  -1.7500 -3.7500 -0.0000
v  -1.7500 -3.7500 -0.2500
v  -1.7500 3.7500 -0.0000
v  -1.7500 3.7500 -0.2500
v  -1.7500 5.0000 -0.0000
v  -1.7500 5.0000 -0.2500
v  -1.2500 -0.2500 0.2500
v  -1.2500 -0.2500 -0.0000
v  -1.2500 0.2500 0.2500
v  -1.2500 0.2500 -0.0000
v  -0.5000 -0.2500 0.2500
v  -0.5000 -0.2500 -0.0000
v  -0.5000 0.2500 0.2500
v  -0.5000 0.2500 -0.0000
v  0.0000 -3.7500 -0.0000
v  0.0000 -3.7500 -0.2500
v  0.0000 -3.2500 -0.0000
v  0.0000 -3.2500 -0.2500
v  0.0000 3.2500 -0.0000
v  0.0000 3.2500 -0.2500
v  0.0000 3.7500 -0.0000
v  0.0000 3.7500 -0.2500
v  0.5000 -3.0000 0.2500
v  0.5000 -3.0000 -0.0000
v  0.5000 -2.5000 0.2500
v  0.5000 -2.5000 -0.0000
v  0.5000 2.5000 0.2500
v  0.5000 2.5000 -0.0000
v  0.5000 3.0000 0.2500
v  0.5000 3.0000 -0.0000
v  0.7500 -1.2500 -0.0000
v  0.7500 -1.2500 -0.2500
v  0.7500 -0.7500 -0.0000
v  0.7500 -0.7500 -0.2500
v  0.7500 0.7500 -0.0000
v  0.7500 0.7500 -0.2500
v  0.7500 1.2500 -0.0000
v  0.7500 1.2500 -0.2500
v  1.5000 -3.2500 -0.0000
v  1.5000 -3.2500 -0.2500
v  1.5000 -1.2500 -0.0000
v  1.5000 -1.2500 -0.2500
v  1.5000 1.2500 -0.0000
v  1.5000 1.2500 -0.2500
v  1.5000 3.2500 -0.0000
v  1.5000 3.2500 -0.2500
v  2.0000 -0.2500 0.2500
v  2.0000 -0.2500 -0.0000
v  2.0000 0.2500 0.2500
v  2.0000 0.2500 -0.0000
v  3.2500 -1.5000 -0.0000
v  3.2500 -1.5000 -0.2500
v  3.2500 -1.2500 -0.0000
v  3.2500 -1.2500 -0.2500
v  3.2500 1.2500 -0.0000
v  3.2500 1.2500 -0.2500
v  3.2500 1.5000 -0.0000
v  3.2500 1.5000 -0.2500
v  3.7500 -1.2500 -0.0000
v  3.7500 -1.2500 -0.2500
v  3.7500 -1.0000 -0.0000
v  3.7500 -1.0000 -0.2500
v  3.7500 1.0000 -0.0000
v  3.7500 1.0000 -0.2500
v  3.7500 1.2500 -0.0000
v  3.7500 1.2500 -0.2500
v  4.2500 -1.0000 -0.0000
v  4.2500 -1.0000 -0.2500
v  4.2500 -0.7500 -0.0000
v  4.2500 -0.7500 -0.2500
v  4.2500 0.7500 -0.0000
v  4.2500 0.7500 -0.2500
v  4.2500 1.0000 -0.0000
v  4.2500 1.0000 -0.2500
v  4.7500 -0.2500 -0.0000
v  4.7500 -0.2500 -0.2500
v  4.7500 0.2500 -0.0000
v  4.7500 0.2500 -0.2500
v  5.0000 -0.7500 -0.0000
v  5.0000 -0.7500 -0.2500
v  5.0000 -0.2500 -0.0000
v  5.0000 -0.2500 -0.2500
v  5.0000 0.2500 -0.0000
v  5.0000 0.2500 -0.2500
v  5.0000 0.7500 -0.0000
v  5.0000 0.7500 -0.2500
v  -0.7500 -0.5000 -0.0000
v  -0.7500 0.5000 -0.0000
v  0.7500 -0.5000 -0.0000
v  0.7500 0.5000 -0.0000
v  2.5000 -0.5000 -0.0000
v  2.5000 0.5000 -0.0000
v  4.2500 -0.2500 -0.0000
v  4.2500 0.2500 -0.0000
v  -0.7500 -0.5000 -0.2500
v  -0.7500 0.5000 -0.2500
v  0.7500 -0.5000 -0.2500
v  0.7500 0.5000 -0.2500
v  2.5000 -0.5000 -0.2500
v  2.5000 0.5000 -0.2500
v  4.2500 -0.2500 -0.2500
v  4.2500 0.2500 -0.2500
# 232 vertices

vn -1.0000 0.0000 -0.0000
vn 1.0000 0.0000 -0.0000
vn 0.0000 0.0000 1.0000
vn 0.0000 0.0000 -1.0000
vn 0.0000 -1.0000 -0.0000
vn 0.0000 1.0000 -0.0000
# 6 vertex normals

vt 0.5645 0.5000 0.0000
vt 0.8379 0.5000 0.0000
vt 0.7988 0.5000 0.0000
vt 0.4199 0.5000 0.0000
vt 0.9238 0.5000 0.0000
vt 0.4941 0.5000 0.0000
vt 0.7051 0.5000 0.0000
vt 0.8340 0.5000 0.0000
vt 0.5449 0.5000 0.0000
vt 0.9199 0.5000 0.0000
vt 0.6895 0.5000 0.0000
vt 0.6855 0.5000 0.0000
vt 0.6348 0.5000 0.0000
# 13 texture coords

g Player
usemtl palette
s 1
f 1/1/1 2/1/1 3/1/1 
f 4/1/1 2/1/1 1/1/1 
f 5/1/1 6/1/1 7/1/1 
f 8/1/1 6/1/1 5/1/1 
f 9/2/1 10/2/1 11/2/1 
f 12/2/1 10/2/1 9/2/1 
f 13/3/1 14/3/1 15/3/1 
f 16/3/1 14/3/1 13/3/1 
f 17/3/1 18/3/1 19/3/1 
f 20/3/1 18/3/1 17/3/1 
f 21/3/1 22/3/1 23/3/1 
f 24/3/1 22/3/1 21/3/1 
f 25/3/1 26/3/1 27/3/1 
f 28/3/1 26/3/1 25/3/1 
f 29/4/1 30/4/1 31/4/1 
f 32/4/1 30/4/1 29/4/1 
f 33/5/1 34/5/1 35/5/1 
f 36/5/1 34/5/1 33/5/1 
f 37/6/1 38/6/1 39/6/1 
f 40/6/1 38/6/1 37/6/1 
f 41/6/1 42/6/1 43/6/1 
f 44/6/1 42/6/1 41/6/1 
f 45/5/1 46/5/1 47/5/1 
f 48/5/1 46/5/1 45/5/1 
f 49/7/1 50/7/1 51/7/1 
f 52/7/1 50/7/1 49/7/1 
f 53/7/1 54/7/1 55/7/1 
f 56/7/1 54/7/1 53/7/1 
f 57/3/1 58/3/1 59/3/1 
f 60/3/1 58/3/1 57/3/1 
f 61/3/1 62/3/1 63/3/1 
f 64/3/1 62/3/1 61/3/1 
f 65/3/1 66/3/1 67/3/1 
f 68/3/1 66/3/1 65/3/1 
f 69/3/1 70/3/1 71/3/1 
f 72/3/1 70/3/1 69/3/1 
f 73/4/1 74/4/1 75/4/1 
f 76/4/1 74/4/1 73/4/1 
f 77/8/1 78/8/1 79/8/1 
f 80/8/1 78/8/1 77/8/1 
f 81/8/1 82/8/1 83/8/1 
f 84/8/1 82/8/1 81/8/1 
f 85/3/1 86/3/1 87/3/1 
f 88/3/1 86/3/1 85/3/1 
f 89/4/1 90/4/1 91/4/1 
f 92/4/1 90/4/1 89/4/1 
f 93/3/1 94/3/1 95/3/1 
f 96/3/1 94/3/1 93/3/1 
f 97/4/1 98/4/1 99/4/1 
f 100/4/1 98/4/1 97/4/1 
f 101/9/1 102/9/1 103/9/1 
f 104/9/1 102/9/1 101/9/1 
f 105/9/1 106/9/1 107/9/1 
f 108/9/1 106/9/1 105/9/1 
f 109/10/1 110/10/1 111/10/1 
f 112/10/1 110/10/1 109/10/1 
f 113/10/1 114/10/1 115/10/1 
f 116/10/1 114/10/1 113/10/1 
f 117/4/2 118/4/2 119/4/2 
f 119/4/2 118/4/2 120/4/2 
f 121/5/2 122/5/2 123/5/2 
f 123/5/2 122/5/2 124/5/2 
f 125/5/2 126/5/2 127/5/2 
f 127/5/2 126/5/2 128/5/2 
f 129/3/2 130/3/2 131/3/2 
f 131/3/2 130/3/2 132/3/2 
f 133/3/2 134/3/2 135/3/2 
f 135/3/2 134/3/2 136/3/2 
f 137/4/2 138/4/2 139/4/2 
f 139/4/2 138/4/2 140/4/2 
f 141/4/2 142/4/2 143/4/2 
f 143/4/2 142/4/2 144/4/2 
f 145/3/2 146/3/2 147/3/2 
f 147/3/2 146/3/2 148/3/2 
f 149/3/2 150/3/2 151/3/2 
f 151/3/2 150/3/2 152/3/2 
f 153/8/2 154/8/2 155/8/2 
f 155/8/2 154/8/2 156/8/2 
f 157/8/2 158/8/2 159/8/2 
f 159/8/2 158/8/2 160/8/2 
f 161/3/2 162/3/2 163/3/2 
f 163/3/2 162/3/2 164/3/2 
f 165/3/2 166/3/2 167/3/2 
f 167/3/2 166/3/2 168/3/2 
f 169/3/2 170/3/2 171/3/2 
f 171/3/2 170/3/2 172/3/2 
f 173/3/2 174/3/2 175/3/2 
f 175/3/2 174/3/2 176/3/2 
f 177/4/2 178/4/2 179/4/2 
f 179/4/2 178/4/2 180/4/2 
f 181/9/2 182/9/2 183/9/2 
f 183/9/2 182/9/2 184/9/2 
f 185/9/2 186/9/2 187/9/2 
f 187/9/2 186/9/2 188/9/2 
f 189/10/2 190/10/2 191/10/2 
f 191/10/2 190/10/2 192/10/2 
f 193/10/2 194/10/2 195/10/2 
f 195/10/2 194/10/2 196/10/2 
f 197/2/2 198/2/2 199/2/2 
f 199/2/2 198/2/2 200/2/2 
f 201/2/2 202/2/2 203/2/2 
f 203/2/2 202/2/2 204/2/2 
f 205/11/2 206/11/2 207/11/2 
f 207/11/2 206/11/2 208/11/2 
f 209/12/2 210/12/2 211/12/2 
f 211/12/2 210/12/2 212/12/2 
f 213/12/2 214/12/2 215/12/2 
f 215/12/2 214/12/2 216/12/2 
f 117/4/3 29/4/3 31/4/3 
f 119/4/3 29/4/3 117/4/3 
f 121/5/3 33/5/3 35/5/3 
f 123/5/3 33/5/3 121/5/3 
f 125/5/3 45/5/3 47/5/3 
f 127/5/3 45/5/3 125/5/3 
f 137/4/3 73/4/3 75/4/3 
f 139/4/3 73/4/3 137/4/3 
f 141/4/3 89/4/3 91/4/3 
f 143/4/3 89/4/3 141/4/3 
f 153/8/3 77/8/3 79/8/3 
f 155/8/3 77/8/3 153/8/3 
f 157/8/3 81/8/3 83/8/3 
f 159/8/3 81/8/3 157/8/3 
f 177/4/3 97/4/3 99/4/3 
f 179/4/3 97/4/3 177/4/3 
f 13/1/3 1/1/3 3/1/3 
f 19/1/3 1/1/3 13/1/3 
f 21/1/3 5/1/3 7/1/3 
f 27/1/3 5/1/3 21/1/3 
f 30/2/3 9/2/3 11/2/3 
f 32/2/3 9/2/3 30/2/3 
f 34/3/3 17/3/3 19/3/3 
f 34/3/3 13/3/3 15/3/3 
f 34/3/3 19/3/3 13/3/3 
f 36/3/3 17/3/3 34/3/3 
f 46/3/3 25/3/3 27/3/3 
f 46/3/3 27/3/3 21/3/3 
f 46/3/3 21/3/3 23/3/3 
f 48/3/3 25/3/3 46/3/3 
f 49/2/3 30/2/3 11/2/3 
f 55/2/3 9/2/3 32/2/3 
f 118/2/3 30/2/3 49/2/3 
f 120/2/3 55/2/3 32/2/3 
f 122/3/3 34/3/3 15/3/3 
f 124/3/3 17/3/3 36/3/3 
f 126/3/3 46/3/3 23/3/3 
f 128/3/3 25/3/3 48/3/3 
f 129/3/3 124/3/3 122/3/3 
f 129/3/3 122/3/3 15/3/3 
f 131/3/3 17/3/3 124/3/3 
f 131/3/3 124/3/3 129/3/3 
f 59/3/3 17/3/3 131/3/3 
f 57/6/3 37/6/3 39/6/3 
f 63/6/3 37/6/3 57/6/3 
f 65/6/3 41/6/3 43/6/3 
f 71/6/3 41/6/3 65/6/3 
f 69/3/3 128/3/3 126/3/3 
f 69/3/3 126/3/3 23/3/3 
f 133/3/3 128/3/3 69/3/3 
f 135/3/3 25/3/3 128/3/3 
f 135/3/3 128/3/3 133/3/3 
f 74/2/3 120/2/3 118/2/3 
f 74/2/3 118/2/3 49/2/3 
f 76/2/3 55/2/3 120/2/3 
f 76/2/3 120/2/3 74/2/3 
f 78/3/3 61/3/3 63/3/3 
f 78/3/3 59/3/3 131/3/3 
f 78/3/3 57/3/3 59/3/3 
f 78/3/3 63/3/3 57/3/3 
f 80/3/3 61/3/3 78/3/3 
f 138/2/3 74/2/3 49/2/3 
f 140/2/3 55/2/3 76/2/3 
f 82/3/3 71/3/3 65/3/3 
f 82/3/3 133/3/3 69/3/3 
f 82/3/3 65/3/3 67/3/3 
f 82/3/3 69/3/3 71/3/3 
f 84/3/3 133/3/3 82/3/3 
f 87/3/3 61/3/3 80/3/3 
f 85/7/3 49/7/3 51/7/3 
f 217/2/3 138/2/3 49/2/3 
f 217/2/3 140/2/3 138/2/3 
f 217/7/3 49/7/3 85/7/3 
f 90/2/3 140/2/3 217/2/3 
f 92/2/3 55/2/3 140/2/3 
f 92/2/3 140/2/3 90/2/3 
f 218/7/3 53/7/3 55/7/3 
f 218/2/3 55/2/3 92/2/3 
f 95/7/3 53/7/3 218/7/3 
f 93/3/3 82/3/3 67/3/3 
f 142/2/3 90/2/3 217/2/3 
f 144/2/3 218/2/3 92/2/3 
f 145/3/3 78/3/3 131/3/3 
f 147/3/3 78/3/3 145/3/3 
f 149/3/3 133/3/3 84/3/3 
f 151/3/3 133/3/3 149/3/3 
f 154/3/3 78/3/3 147/3/3 
f 156/3/3 85/3/3 87/3/3 
f 156/3/3 87/3/3 80/3/3 
f 156/3/3 217/3/3 85/3/3 
f 158/3/3 93/3/3 95/3/3 
f 158/3/3 82/3/3 93/3/3 
f 158/3/3 95/3/3 218/3/3 
f 160/3/3 149/3/3 84/3/3 
f 161/3/3 156/3/3 154/3/3 
f 161/3/3 217/3/3 156/3/3 
f 163/3/3 217/3/3 161/3/3 
f 219/2/3 144/2/3 142/2/3 
f 219/3/3 217/3/3 163/3/3 
f 219/2/3 142/2/3 217/2/3 
f 220/3/3 158/3/3 218/3/3 
f 220/2/3 144/2/3 219/2/3 
f 220/3/3 160/3/3 158/3/3 
f 220/2/3 218/2/3 144/2/3 
f 165/3/3 160/3/3 220/3/3 
f 167/3/3 160/3/3 165/3/3 
f 169/3/3 154/3/3 147/3/3 
f 169/3/3 161/3/3 154/3/3 
f 171/3/3 161/3/3 169/3/3 
f 98/2/3 220/2/3 219/2/3 
f 100/2/3 220/2/3 98/2/3 
f 173/3/3 160/3/3 167/3/3 
f 175/3/3 149/3/3 160/3/3 
f 175/3/3 160/3/3 173/3/3 
f 178/2/3 98/2/3 219/2/3 
f 180/2/3 220/2/3 100/2/3 
f 111/9/3 101/9/3 103/9/3 
f 109/13/3 219/13/3 163/13/3 
f 221/2/3 178/2/3 219/2/3 
f 221/2/3 180/2/3 178/2/3 
f 221/13/3 219/13/3 109/13/3 
f 222/13/3 165/13/3 220/13/3 
f 222/2/3 180/2/3 221/2/3 
f 222/2/3 220/2/3 180/2/3 
f 115/13/3 165/13/3 222/13/3 
f 113/9/3 105/9/3 107/9/3 
f 181/9/3 111/9/3 103/9/3 
f 183/10/3 109/10/3 111/10/3 
f 183/9/3 111/9/3 181/9/3 
f 183/10/3 113/10/3 115/10/3 
f 183/10/3 221/10/3 109/10/3 
f 183/10/3 115/10/3 222/10/3 
f 183/10/3 222/10/3 221/10/3 
f 185/9/3 105/9/3 113/9/3 
f 185/10/3 113/10/3 183/10/3 
f 187/9/3 105/9/3 185/9/3 
f 189/10/3 185/10/3 183/10/3 
f 191/10/3 185/10/3 189/10/3 
f 193/10/3 185/10/3 191/10/3 
f 195/10/3 185/10/3 193/10/3 
f 197/2/3 193/2/3 191/2/3 
f 199/2/3 193/2/3 197/2/3 
f 223/2/3 193/2/3 199/2/3 
f 224/2/3 193/2/3 223/2/3 
f 201/2/3 193/2/3 224/2/3 
f 203/2/3 193/2/3 201/2/3 
f 205/12/3 223/12/3 199/12/3 
f 205/11/3 224/11/3 223/11/3 
f 207/12/3 201/12/3 224/12/3 
f 207/11/3 224/11/3 205/11/3 
f 209/12/3 205/12/3 199/12/3 
f 211/12/3 205/12/3 209/12/3 
f 213/12/3 201/12/3 207/12/3 
f 215/12/3 201/12/3 213/12/3 
f 2/1/4 4/1/4 16/1/4 
f 16/1/4 4/1/4 18/1/4 
f 6/1/4 8/1/4 24/1/4 
f 24/1/4 8/1/4 26/1/4 
f 10/2/4 12/2/4 52/2/4 
f 52/2/4 12/2/4 54/2/4 
f 18/3/4 20/3/4 130/3/4 
f 14/3/4 16/3/4 130/3/4 
f 16/3/4 18/3/4 130/3/4 
f 130/3/4 20/3/4 132/3/4 
f 132/3/4 20/3/4 58/3/4 
f 38/6/4 40/6/4 60/6/4 
f 60/6/4 40/6/4 62/6/4 
f 42/6/4 44/6/4 68/6/4 
f 68/6/4 44/6/4 70/6/4 
f 22/3/4 24/3/4 72/3/4 
f 24/3/4 26/3/4 72/3/4 
f 26/3/4 28/3/4 72/3/4 
f 72/3/4 28/3/4 134/3/4 
f 134/3/4 28/3/4 136/3/4 
f 62/3/4 64/3/4 86/3/4 
f 132/3/4 58/3/4 86/3/4 
f 58/3/4 60/3/4 86/3/4 
f 60/3/4 62/3/4 86/3/4 
f 50/7/4 52/7/4 88/7/4 
f 52/2/4 54/2/4 225/2/4 
f 88/7/4 52/7/4 225/7/4 
f 54/7/4 56/7/4 226/7/4 
f 225/2/4 54/2/4 226/2/4 
f 226/7/4 56/7/4 94/7/4 
f 68/3/4 70/3/4 96/3/4 
f 66/3/4 68/3/4 96/3/4 
f 72/3/4 134/3/4 96/3/4 
f 70/3/4 72/3/4 96/3/4 
f 88/3/4 225/3/4 146/3/4 
f 86/3/4 88/3/4 146/3/4 
f 132/3/4 86/3/4 146/3/4 
f 146/3/4 225/3/4 148/3/4 
f 94/3/4 96/3/4 150/3/4 
f 96/3/4 134/3/4 150/3/4 
f 226/3/4 94/3/4 150/3/4 
f 150/3/4 134/3/4 152/3/4 
f 148/3/4 225/3/4 162/3/4 
f 162/3/4 225/3/4 164/3/4 
f 225/2/4 226/2/4 227/2/4 
f 164/3/4 225/3/4 227/3/4 
f 226/3/4 150/3/4 228/3/4 
f 227/2/4 226/2/4 228/2/4 
f 228/3/4 150/3/4 166/3/4 
f 166/3/4 150/3/4 168/3/4 
f 148/3/4 162/3/4 170/3/4 
f 170/3/4 162/3/4 172/3/4 
f 168/3/4 150/3/4 174/3/4 
f 174/3/4 150/3/4 176/3/4 
f 102/9/4 104/9/4 110/9/4 
f 164/13/4 227/13/4 112/13/4 
f 227/2/4 228/2/4 229/2/4 
f 112/13/4 227/13/4 229/13/4 
f 228/13/4 166/13/4 230/13/4 
f 229/2/4 228/2/4 230/2/4 
f 230/13/4 166/13/4 114/13/4 
f 106/9/4 108/9/4 116/9/4 
f 102/9/4 110/9/4 182/9/4 
f 114/10/4 116/10/4 184/10/4 
f 182/9/4 110/9/4 184/9/4 
f 112/10/4 229/10/4 184/10/4 
f 110/10/4 112/10/4 184/10/4 
f 230/10/4 114/10/4 184/10/4 
f 229/10/4 230/10/4 184/10/4 
f 116/9/4 108/9/4 186/9/4 
f 184/10/4 116/10/4 186/10/4 
f 186/9/4 108/9/4 188/9/4 
f 184/10/4 186/10/4 190/10/4 
f 190/10/4 186/10/4 192/10/4 
f 192/10/4 186/10/4 194/10/4 
f 194/10/4 186/10/4 196/10/4 
f 192/2/4 194/2/4 198/2/4 
f 198/2/4 194/2/4 200/2/4 
f 200/2/4 194/2/4 231/2/4 
f 231/2/4 194/2/4 232/2/4 
f 232/2/4 194/2/4 202/2/4 
f 202/2/4 194/2/4 204/2/4 
f 200/12/4 231/12/4 206/12/4 
f 231/11/4 232/11/4 206/11/4 
f 232/12/4 202/12/4 208/12/4 
f 206/11/4 232/11/4 208/11/4 
f 200/12/4 206/12/4 210/12/4 
f 210/12/4 206/12/4 212/12/4 
f 208/12/4 202/12/4 214/12/4 
f 214/12/4 202/12/4 216/12/4 
f 14/3/5 129/3/5 15/3/5 
f 130/3/5 129/3/5 14/3/5 
f 34/5/5 121/5/5 35/5/5 
f 122/5/5 121/5/5 34/5/5 
f 2/1/5 13/1/5 3/1/5 
f 16/1/5 13/1/5 2/1/5 
f 132/3/5 145/3/5 131/3/5 
f 146/3/5 145/3/5 132/3/5 
f 148/3/5 169/3/5 147/3/5 
f 170/3/5 169/3/5 148/3/5 
f 78/8/5 153/8/5 79/8/5 
f 154/8/5 153/8/5 78/8/5 
f 38/6/5 57/6/5 39/6/5 
f 60/6/5 57/6/5 38/6/5 
f 102/9/5 181/9/5 103/9/5 
f 182/9/5 181/9/5 102/9/5 
f 184/10/5 189/10/5 183/10/5 
f 190/10/5 189/10/5 184/10/5 
f 192/2/5 197/2/5 191/2/5 
f 198/2/5 197/2/5 192/2/5 
f 50/7/5 85/7/5 51/7/5 
f 88/7/5 85/7/5 50/7/5 
f 164/13/5 109/13/5 163/13/5 
f 112/13/5 109/13/5 164/13/5 
f 200/12/5 209/12/5 199/12/5 
f 210/12/5 209/12/5 200/12/5 
f 10/2/5 49/2/5 11/2/5 
f 52/2/5 49/2/5 10/2/5 
f 30/4/5 117/4/5 31/4/5 
f 118/4/5 117/4/5 30/4/5 
f 74/4/5 137/4/5 75/4/5 
f 138/4/5 137/4/5 74/4/5 
f 90/4/5 141/4/5 91/4/5 
f 142/4/5 141/4/5 90/4/5 
f 98/4/5 177/4/5 99/4/5 
f 178/4/5 177/4/5 98/4/5 
f 208/12/5 213/12/5 207/12/5 
f 214/12/5 213/12/5 208/12/5 
f 66/3/5 93/3/5 67/3/5 
f 96/3/5 93/3/5 66/3/5 
f 168/3/5 173/3/5 167/3/5 
f 174/3/5 173/3/5 168/3/5 
f 106/9/5 113/9/5 107/9/5 
f 116/9/5 113/9/5 106/9/5 
f 42/6/5 65/6/5 43/6/5 
f 68/6/5 65/6/5 42/6/5 
f 82/8/5 157/8/5 83/8/5 
f 158/8/5 157/8/5 82/8/5 
f 22/3/5 69/3/5 23/3/5 
f 72/3/5 69/3/5 22/3/5 
f 6/1/5 21/1/5 7/1/5 
f 24/1/5 21/1/5 6/1/5 
f 46/5/5 125/5/5 47/5/5 
f 126/5/5 125/5/5 46/5/5 
f 33/5/6 123/5/6 36/5/6 
f 36/5/6 123/5/6 124/5/6 
f 1/1/6 19/1/6 4/1/6 
f 4/1/6 19/1/6 18/1/6 
f 77/8/6 155/8/6 80/8/6 
f 80/8/6 155/8/6 156/8/6 
f 17/3/6 59/3/6 20/3/6 
f 20/3/6 59/3/6 58/3/6 
f 37/6/6 63/6/6 40/6/6 
f 40/6/6 63/6/6 62/6/6 
f 61/3/6 87/3/6 64/3/6 
f 64/3/6 87/3/6 86/3/6 
f 161/3/6 171/3/6 162/3/6 
f 162/3/6 171/3/6 172/3/6 
f 101/9/6 111/9/6 104/9/6 
f 104/9/6 111/9/6 110/9/6 
f 205/12/6 211/12/6 206/12/6 
f 206/12/6 211/12/6 212/12/6 
f 29/4/6 119/4/6 32/4/6 
f 32/4/6 119/4/6 120/4/6 
f 73/4/6 139/4/6 76/4/6 
f 76/4/6 139/4/6 140/4/6 
f 89/4/6 143/4/6 92/4/6 
f 92/4/6 143/4/6 144/4/6 
f 97/4/6 179/4/6 100/4/6 
f 100/4/6 179/4/6 180/4/6 
f 9/2/6 55/2/6 12/2/6 
f 12/2/6 55/2/6 54/2/6 
f 53/7/6 95/7/6 56/7/6 
f 56/7/6 95/7/6 94/7/6 
f 165/13/6 115/13/6 166/13/6 
f 166/13/6 115/13/6 114/13/6 
f 201/12/6 215/12/6 202/12/6 
f 202/12/6 215/12/6 216/12/6 
f 193/2/6 203/2/6 194/2/6 
f 194/2/6 203/2/6 204/2/6 
f 185/10/6 195/10/6 186/10/6 
f 186/10/6 195/10/6 196/10/6 
f 105/9/6 187/9/6 108/9/6 
f 108/9/6 187/9/6 188/9/6 
f 41/6/6 71/6/6 44/6/6 
f 44/6/6 71/6/6 70/6/6 
f 81/8/6 159/8/6 84/8/6 
f 84/8/6 159/8/6 160/8/6 
f 149/3/6 175/3/6 150/3/6 
f 150/3/6 175/3/6 176/3/6 
f 5/1/6 27/1/6 8/1/6 
f 8/1/6 27/1/6 26/1/6 
f 133/3/6 151/3/6 134/3/6 
f 134/3/6 151/3/6 152/3/6 
f 45/5/6 127/5/6 48/5/6 
f 48/5/6 127/5/6 128/5/6 
f 25/3/6 135/3/6 28/3/6 
f 28/3/6 135/3/6 136/3/6 
# 0 polygons - 460 triangles

